<svg width="128" height="43" viewBox="0 0 128 43" fill="none" xmlns="http://www.w3.org/2000/svg">
<rect width="128" height="43" fill="white"/>
<path d="M38.6621 32.312V10.76H41.8781V11.456H39.4301V31.616H41.8781V32.312H38.6621Z" fill="black"/>
<path d="M47.3812 18.9867C46.9946 18.9867 46.6479 18.9233 46.3412 18.7967C46.0412 18.67 45.7846 18.49 45.5712 18.2567C45.3646 18.0233 45.2046 17.74 45.0912 17.4067C44.9846 17.0733 44.9312 16.7 44.9312 16.2867C44.9312 15.8733 44.9846 15.5 45.0912 15.1667C45.2046 14.8333 45.3646 14.55 45.5712 14.3167C45.7846 14.0833 46.0412 13.9033 46.3412 13.7767C46.6479 13.65 46.9912 13.5867 47.3712 13.5867C47.9046 13.5867 48.3312 13.7 48.6512 13.9267C48.9779 14.1533 49.2212 14.4467 49.3812 14.8067L48.5312 15.2667C48.4379 15.0267 48.2946 14.8367 48.1012 14.6967C47.9146 14.5567 47.6712 14.4867 47.3712 14.4867C46.9579 14.4867 46.6379 14.6133 46.4112 14.8667C46.1846 15.1133 46.0712 15.4433 46.0712 15.8567V16.7167C46.0712 17.1233 46.1846 17.4533 46.4112 17.7067C46.6379 17.96 46.9646 18.0867 47.3912 18.0867C47.7112 18.0867 47.9712 18.0133 48.1712 17.8667C48.3779 17.72 48.5412 17.52 48.6612 17.2667L49.4612 17.7567C49.2946 18.1167 49.0412 18.4133 48.7012 18.6467C48.3612 18.8733 47.9212 18.9867 47.3812 18.9867ZM53.5373 18.9867C53.1573 18.9867 52.814 18.9233 52.5073 18.7967C52.2073 18.67 51.9507 18.49 51.7373 18.2567C51.5307 18.0233 51.3707 17.74 51.2573 17.4067C51.144 17.0733 51.0873 16.7 51.0873 16.2867C51.0873 15.8733 51.144 15.5 51.2573 15.1667C51.3707 14.8333 51.5307 14.55 51.7373 14.3167C51.9507 14.0833 52.2073 13.9033 52.5073 13.7767C52.814 13.65 53.1573 13.5867 53.5373 13.5867C53.9173 13.5867 54.2573 13.65 54.5573 13.7767C54.864 13.9033 55.1207 14.0833 55.3273 14.3167C55.5407 14.55 55.704 14.8333 55.8173 15.1667C55.9307 15.5 55.9873 15.8733 55.9873 16.2867C55.9873 16.7 55.9307 17.0733 55.8173 17.4067C55.704 17.74 55.5407 18.0233 55.3273 18.2567C55.1207 18.49 54.864 18.67 54.5573 18.7967C54.2573 18.9233 53.9173 18.9867 53.5373 18.9867ZM53.5373 18.1267C53.9373 18.1267 54.254 18.0067 54.4873 17.7667C54.7273 17.52 54.8473 17.1567 54.8473 16.6767V15.8967C54.8473 15.4167 54.7273 15.0567 54.4873 14.8167C54.254 14.57 53.9373 14.4467 53.5373 14.4467C53.1373 14.4467 52.8173 14.57 52.5773 14.8167C52.344 15.0567 52.2273 15.4167 52.2273 15.8967V16.6767C52.2273 17.1567 52.344 17.52 52.5773 17.7667C52.8173 18.0067 53.1373 18.1267 53.5373 18.1267ZM61.0034 17.9867H60.9434C60.7901 18.3 60.5867 18.5467 60.3334 18.7267C60.0801 18.9 59.7634 18.9867 59.3834 18.9867C58.7767 18.9867 58.2934 18.76 57.9334 18.3067C57.5734 17.8533 57.3934 17.18 57.3934 16.2867C57.3934 15.3933 57.5734 14.72 57.9334 14.2667C58.2934 13.8133 58.7767 13.5867 59.3834 13.5867C59.7634 13.5867 60.0801 13.6767 60.3334 13.8567C60.5867 14.03 60.7901 14.2733 60.9434 14.5867H61.0034V11.4667H62.0934V18.8667H61.0034V17.9867ZM59.8334 18.0967C59.9934 18.0967 60.1434 18.0767 60.2834 18.0367C60.4234 17.9967 60.5467 17.9367 60.6534 17.8567C60.7601 17.7767 60.8434 17.68 60.9034 17.5667C60.9701 17.4467 61.0034 17.3067 61.0034 17.1467V15.4267C61.0034 15.2667 60.9701 15.13 60.9034 15.0167C60.8434 14.8967 60.7601 14.7967 60.6534 14.7167C60.5467 14.6367 60.4234 14.5767 60.2834 14.5367C60.1434 14.4967 59.9934 14.4767 59.8334 14.4767C59.4201 14.4767 59.1001 14.6033 58.8734 14.8567C58.6534 15.11 58.5434 15.4467 58.5434 15.8667V16.7067C58.5434 17.1267 58.6534 17.4633 58.8734 17.7167C59.1001 17.97 59.4201 18.0967 59.8334 18.0967ZM66.3395 18.9867C65.9462 18.9867 65.5928 18.9233 65.2795 18.7967C64.9662 18.67 64.7028 18.49 64.4895 18.2567C64.2762 18.0233 64.1128 17.7433 63.9995 17.4167C63.8862 17.0833 63.8295 16.71 63.8295 16.2967C63.8295 15.8833 63.8862 15.51 63.9995 15.1767C64.1195 14.8433 64.2828 14.56 64.4895 14.3267C64.7028 14.0867 64.9595 13.9033 65.2595 13.7767C65.5595 13.65 65.8928 13.5867 66.2595 13.5867C66.6195 13.5867 66.9462 13.65 67.2395 13.7767C67.5328 13.8967 67.7828 14.07 67.9895 14.2967C68.1962 14.5233 68.3528 14.7933 68.4595 15.1067C68.5728 15.42 68.6295 15.7667 68.6295 16.1467V16.5567H64.9295V16.7267C64.9295 17.1333 65.0562 17.4667 65.3095 17.7267C65.5628 17.98 65.9128 18.1067 66.3595 18.1067C66.6928 18.1067 66.9762 18.0367 67.2095 17.8967C67.4495 17.75 67.6428 17.5567 67.7895 17.3167L68.4695 17.9167C68.2962 18.2167 68.0295 18.47 67.6695 18.6767C67.3162 18.8833 66.8728 18.9867 66.3395 18.9867ZM66.2595 14.4167C66.0662 14.4167 65.8862 14.45 65.7195 14.5167C65.5595 14.5833 65.4195 14.68 65.2995 14.8067C65.1862 14.9267 65.0962 15.07 65.0295 15.2367C64.9628 15.4033 64.9295 15.5867 64.9295 15.7867V15.8567H67.5195V15.7567C67.5195 15.35 67.4028 15.0267 67.1695 14.7867C66.9428 14.54 66.6395 14.4167 66.2595 14.4167ZM76.7117 11.4667H77.8017V14.5867H77.8617C78.015 14.2733 78.2184 14.03 78.4717 13.8567C78.725 13.6767 79.0417 13.5867 79.4217 13.5867C80.0284 13.5867 80.5117 13.8133 80.8717 14.2667C81.2317 14.72 81.4117 15.3933 81.4117 16.2867C81.4117 17.18 81.2317 17.8533 80.8717 18.3067C80.5117 18.76 80.0284 18.9867 79.4217 18.9867C79.0417 18.9867 78.725 18.9 78.4717 18.7267C78.2184 18.5467 78.015 18.3 77.8617 17.9867H77.8017V18.8667H76.7117V11.4667ZM78.9717 18.0967C79.385 18.0967 79.7017 17.97 79.9217 17.7167C80.1484 17.4633 80.2617 17.1267 80.2617 16.7067V15.8667C80.2617 15.4467 80.1484 15.11 79.9217 14.8567C79.7017 14.6033 79.385 14.4767 78.9717 14.4767C78.8117 14.4767 78.6617 14.4967 78.5217 14.5367C78.3817 14.5767 78.2584 14.6367 78.1517 14.7167C78.045 14.7967 77.9584 14.8967 77.8917 15.0167C77.8317 15.13 77.8017 15.2667 77.8017 15.4267V17.1467C77.8017 17.3067 77.8317 17.4467 77.8917 17.5667C77.9584 17.68 78.045 17.7767 78.1517 17.8567C78.2584 17.9367 78.3817 17.9967 78.5217 18.0367C78.6617 18.0767 78.8117 18.0967 78.9717 18.0967ZM83.0178 17.9867H84.7278V12.3467H83.0178V11.4667H85.8178V17.9867H87.5278V18.8667H83.0178V17.9867ZM91.6139 18.9867C91.2339 18.9867 90.8905 18.9233 90.5839 18.7967C90.2839 18.67 90.0272 18.49 89.8139 18.2567C89.6072 18.0233 89.4472 17.74 89.3339 17.4067C89.2205 17.0733 89.1639 16.7 89.1639 16.2867C89.1639 15.8733 89.2205 15.5 89.3339 15.1667C89.4472 14.8333 89.6072 14.55 89.8139 14.3167C90.0272 14.0833 90.2839 13.9033 90.5839 13.7767C90.8905 13.65 91.2339 13.5867 91.6139 13.5867C91.9939 13.5867 92.3339 13.65 92.6339 13.7767C92.9405 13.9033 93.1972 14.0833 93.4039 14.3167C93.6172 14.55 93.7805 14.8333 93.8939 15.1667C94.0072 15.5 94.0639 15.8733 94.0639 16.2867C94.0639 16.7 94.0072 17.0733 93.8939 17.4067C93.7805 17.74 93.6172 18.0233 93.4039 18.2567C93.1972 18.49 92.9405 18.67 92.6339 18.7967C92.3339 18.9233 91.9939 18.9867 91.6139 18.9867ZM91.6139 18.1267C92.0139 18.1267 92.3305 18.0067 92.5639 17.7667C92.8039 17.52 92.9239 17.1567 92.9239 16.6767V15.8967C92.9239 15.4167 92.8039 15.0567 92.5639 14.8167C92.3305 14.57 92.0139 14.4467 91.6139 14.4467C91.2139 14.4467 90.8939 14.57 90.6539 14.8167C90.4205 15.0567 90.3039 15.4167 90.3039 15.8967V16.6767C90.3039 17.1567 90.4205 17.52 90.6539 17.7667C90.8939 18.0067 91.2139 18.1267 91.6139 18.1267ZM98.15 18.9867C97.7633 18.9867 97.4166 18.9233 97.11 18.7967C96.81 18.67 96.5533 18.49 96.34 18.2567C96.1333 18.0233 95.9733 17.74 95.86 17.4067C95.7533 17.0733 95.7 16.7 95.7 16.2867C95.7 15.8733 95.7533 15.5 95.86 15.1667C95.9733 14.8333 96.1333 14.55 96.34 14.3167C96.5533 14.0833 96.81 13.9033 97.11 13.7767C97.4166 13.65 97.76 13.5867 98.14 13.5867C98.6733 13.5867 99.1 13.7 99.42 13.9267C99.7466 14.1533 99.99 14.4467 100.15 14.8067L99.3 15.2667C99.2066 15.0267 99.0633 14.8367 98.87 14.6967C98.6833 14.5567 98.44 14.4867 98.14 14.4867C97.7266 14.4867 97.4066 14.6133 97.18 14.8667C96.9533 15.1133 96.84 15.4433 96.84 15.8567V16.7167C96.84 17.1233 96.9533 17.4533 97.18 17.7067C97.4066 17.96 97.7333 18.0867 98.16 18.0867C98.48 18.0867 98.74 18.0133 98.94 17.8667C99.1466 17.72 99.31 17.52 99.43 17.2667L100.23 17.7567C100.063 18.1167 99.81 18.4133 99.47 18.6467C99.13 18.8733 98.69 18.9867 98.15 18.9867ZM102.186 11.4667H103.276V15.9367H103.326L104.136 15.1067L105.586 13.7067H106.876L104.786 15.7367L107.106 18.8667H105.796L103.996 16.3567L103.276 17.0267V18.8667H102.186V11.4667ZM110.662 18.9867C110.102 18.9867 109.619 18.8967 109.212 18.7167C108.812 18.5367 108.489 18.2967 108.242 17.9967L108.912 17.3967C109.139 17.6433 109.392 17.8333 109.672 17.9667C109.959 18.0933 110.295 18.1567 110.682 18.1567C111.035 18.1567 111.319 18.0967 111.532 17.9767C111.752 17.8567 111.862 17.67 111.862 17.4167C111.862 17.31 111.842 17.22 111.802 17.1467C111.762 17.0733 111.705 17.0133 111.632 16.9667C111.559 16.92 111.472 16.8833 111.372 16.8567C111.279 16.83 111.179 16.81 111.072 16.7967L110.252 16.6667C110.052 16.64 109.849 16.5967 109.642 16.5367C109.435 16.4767 109.249 16.3933 109.082 16.2867C108.922 16.1733 108.789 16.03 108.682 15.8567C108.582 15.6833 108.532 15.4633 108.532 15.1967C108.532 14.67 108.732 14.27 109.132 13.9967C109.539 13.7233 110.072 13.5867 110.732 13.5867C111.212 13.5867 111.625 13.66 111.972 13.8067C112.325 13.9467 112.619 14.1433 112.852 14.3967L112.242 15.0367C112.109 14.8833 111.919 14.7433 111.672 14.6167C111.425 14.4833 111.099 14.4167 110.692 14.4167C109.965 14.4167 109.602 14.6467 109.602 15.1067C109.602 15.3267 109.679 15.48 109.832 15.5667C109.992 15.6467 110.179 15.7 110.392 15.7267L111.212 15.8567C111.419 15.89 111.622 15.9333 111.822 15.9867C112.029 16.04 112.212 16.1233 112.372 16.2367C112.539 16.3433 112.672 16.4833 112.772 16.6567C112.879 16.83 112.932 17.05 112.932 17.3167C112.932 17.8367 112.729 18.2467 112.322 18.5467C111.922 18.84 111.369 18.9867 110.662 18.9867Z" fill="black"/>
<path d="M47.3912 29.7422C46.9646 29.7422 46.6212 29.6522 46.3612 29.4722C46.1012 29.2856 45.9146 29.0689 45.8012 28.8222H45.7612L45.4712 29.6222H45.2012V22.6222L44.4212 22.5222V22.2622L45.7812 22.0422V25.3122H45.8212C45.9346 25.0589 46.1179 24.8422 46.3712 24.6622C46.6312 24.4756 46.9712 24.3822 47.3912 24.3822C48.0446 24.3822 48.5579 24.6089 48.9312 25.0622C49.3112 25.5156 49.5012 26.1822 49.5012 27.0622C49.5012 27.9422 49.3112 28.6089 48.9312 29.0622C48.5579 29.5156 48.0446 29.7422 47.3912 29.7422ZM47.2412 29.3222C47.7612 29.3222 48.1612 29.1522 48.4412 28.8122C48.7279 28.4656 48.8712 27.9989 48.8712 27.4122V26.7122C48.8712 26.1256 48.7279 25.6622 48.4412 25.3222C48.1612 24.9756 47.7612 24.8022 47.2412 24.8022C47.0546 24.8022 46.8746 24.8289 46.7012 24.8822C46.5279 24.9356 46.3712 25.0122 46.2312 25.1122C46.0979 25.2122 45.9879 25.3322 45.9012 25.4722C45.8212 25.6122 45.7812 25.7722 45.7812 25.9522V28.1722C45.7812 28.3522 45.8212 28.5122 45.9012 28.6522C45.9879 28.7922 46.0979 28.9122 46.2312 29.0122C46.3712 29.1122 46.5279 29.1889 46.7012 29.2422C46.8746 29.2956 47.0546 29.3222 47.2412 29.3222ZM52.9508 29.2722H53.7308V24.9822L52.9508 24.8822V24.6222L54.3008 24.4022V25.3522H54.3408C54.3875 25.2389 54.4475 25.1256 54.5208 25.0122C54.6008 24.8922 54.6942 24.7856 54.8008 24.6922C54.9142 24.5989 55.0442 24.5256 55.1908 24.4722C55.3375 24.4122 55.5042 24.3822 55.6908 24.3822C55.9375 24.3822 56.1308 24.4389 56.2708 24.5522C56.4175 24.6589 56.4908 24.8189 56.4908 25.0322C56.4908 25.1856 56.4508 25.3056 56.3708 25.3922C56.2908 25.4789 56.1875 25.5222 56.0608 25.5222C55.9142 25.5222 55.7975 25.4856 55.7108 25.4122C55.6308 25.3322 55.5908 25.2289 55.5908 25.1022C55.5908 25.0022 55.6142 24.9189 55.6608 24.8522C55.7075 24.7856 55.7575 24.7456 55.8108 24.7322V24.7122C55.7575 24.7056 55.7142 24.7022 55.6808 24.7022C55.6475 24.7022 55.6108 24.7022 55.5708 24.7022C55.4242 24.7022 55.2742 24.7389 55.1208 24.8122C54.9742 24.8856 54.8408 24.9822 54.7208 25.1022C54.6008 25.2222 54.5008 25.3589 54.4208 25.5122C54.3475 25.6656 54.3108 25.8222 54.3108 25.9822V29.2722H55.3008V29.6222H52.9508V29.2722ZM60.6115 23.1422C60.4781 23.1422 60.3748 23.1022 60.3015 23.0222C60.2281 22.9356 60.1915 22.8356 60.1915 22.7222V22.6822C60.1915 22.5689 60.2281 22.4722 60.3015 22.3922C60.3748 22.3056 60.4781 22.2622 60.6115 22.2622C60.7448 22.2622 60.8481 22.3056 60.9215 22.3922C60.9948 22.4722 61.0315 22.5689 61.0315 22.6822V22.7222C61.0315 22.8356 60.9948 22.9356 60.9215 23.0222C60.8481 23.1022 60.7448 23.1422 60.6115 23.1422ZM59.5415 29.2722H60.3215V24.9822L59.5415 24.8822V24.6222L60.9015 24.4022V29.2722H61.6815V29.6222H59.5415V29.2722ZM67.2509 29.7422C66.8976 29.7422 66.5809 29.6822 66.3009 29.5622C66.0209 29.4356 65.7809 29.2589 65.5809 29.0322C65.3876 28.7989 65.2376 28.5189 65.1309 28.1922C65.0309 27.8589 64.9809 27.4822 64.9809 27.0622C64.9809 26.6422 65.0342 26.2656 65.1409 25.9322C65.2542 25.5989 65.4109 25.3189 65.6109 25.0922C65.8176 24.8589 66.0609 24.6822 66.3409 24.5622C66.6276 24.4422 66.9442 24.3822 67.2909 24.3822C67.5309 24.3822 67.7509 24.4089 67.9509 24.4622C68.1509 24.5156 68.3242 24.5889 68.4709 24.6822C68.6176 24.7756 68.7309 24.8856 68.8109 25.0122C68.8909 25.1389 68.9309 25.2756 68.9309 25.4222C68.9309 25.5822 68.8876 25.7089 68.8009 25.8022C68.7209 25.8889 68.6042 25.9322 68.4509 25.9322C68.2976 25.9322 68.1809 25.8889 68.1009 25.8022C68.0209 25.7089 67.9809 25.5956 67.9809 25.4622C67.9809 25.3489 68.0109 25.2522 68.0709 25.1722C68.1376 25.0856 68.2242 25.0156 68.3309 24.9622V24.9422C68.1109 24.8089 67.7842 24.7422 67.3509 24.7422C67.0842 24.7422 66.8442 24.7889 66.6309 24.8822C66.4176 24.9756 66.2342 25.1089 66.0809 25.2822C65.9342 25.4489 65.8209 25.6522 65.7409 25.8922C65.6609 26.1256 65.6209 26.3822 65.6209 26.6622V27.3022C65.6209 27.6022 65.6609 27.8756 65.7409 28.1222C65.8209 28.3622 65.9342 28.5689 66.0809 28.7422C66.2342 28.9156 66.4142 29.0489 66.6209 29.1422C66.8342 29.2356 67.0676 29.2822 67.3209 29.2822C67.5342 29.2822 67.7209 29.2589 67.8809 29.2122C68.0476 29.1589 68.1909 29.0889 68.3109 29.0022C68.4376 28.9156 68.5442 28.8122 68.6309 28.6922C68.7242 28.5722 68.8076 28.4456 68.8809 28.3122L69.1309 28.4622C69.0642 28.6222 68.9776 28.7789 68.8709 28.9322C68.7709 29.0856 68.6442 29.2222 68.4909 29.3422C68.3376 29.4622 68.1576 29.5589 67.9509 29.6322C67.7509 29.7056 67.5176 29.7422 67.2509 29.7422ZM72.29 29.2722H73.07V22.6222L72.29 22.5222V22.2622L73.65 22.0422V27.3622H73.7L74.55 26.4422L76.02 24.8522H75.29V24.5022H77.26V24.8522H76.56L74.94 26.5422L76.9 29.2722H77.5V29.6222H75.56V29.2722H76.24L74.55 26.9322L73.65 27.8422V29.2722H74.43V29.6222H72.29V29.2722ZM87.2978 29.7422C86.9445 29.7422 86.6511 29.6789 86.4178 29.5522C86.1911 29.4189 86.0311 29.2656 85.9378 29.0922H85.9078V29.6222H85.4678V28.1122H85.9078V28.3822C85.9078 28.6956 86.0211 28.9389 86.2478 29.1122C86.4745 29.2856 86.7945 29.3722 87.2078 29.3722C87.6278 29.3722 87.9511 29.2922 88.1778 29.1322C88.4045 28.9722 88.5178 28.7256 88.5178 28.3922C88.5178 28.1056 88.4311 27.8822 88.2578 27.7222C88.0911 27.5622 87.8411 27.4456 87.5078 27.3722L86.9778 27.2622C86.5111 27.1556 86.1478 26.9889 85.8878 26.7622C85.6345 26.5289 85.5078 26.1922 85.5078 25.7522C85.5078 25.3122 85.6611 24.9756 85.9678 24.7422C86.2811 24.5022 86.6878 24.3822 87.1878 24.3822C87.5345 24.3822 87.8111 24.4389 88.0178 24.5522C88.2311 24.6656 88.3745 24.8056 88.4478 24.9722H88.4878V24.5022H88.9278V26.0122H88.4878V25.6522C88.4878 25.3522 88.3811 25.1289 88.1678 24.9822C87.9611 24.8289 87.6578 24.7522 87.2578 24.7522C86.8845 24.7522 86.5911 24.8289 86.3778 24.9822C86.1645 25.1289 86.0578 25.3556 86.0578 25.6622C86.0578 25.9556 86.1445 26.1822 86.3178 26.3422C86.4978 26.4956 86.7478 26.6089 87.0678 26.6822L87.5778 26.7922C88.0645 26.8989 88.4345 27.0656 88.6878 27.2922C88.9478 27.5189 89.0778 27.8522 89.0778 28.2922C89.0778 28.7189 88.9211 29.0689 88.6078 29.3422C88.2945 29.6089 87.8578 29.7422 87.2978 29.7422ZM92.4622 29.2722H93.2422V22.6222L92.4622 22.5222V22.2622L93.8222 22.0422V25.2922H93.8622C93.9022 25.1789 93.9622 25.0689 94.0422 24.9622C94.1289 24.8489 94.2322 24.7522 94.3522 24.6722C94.4789 24.5856 94.6256 24.5156 94.7922 24.4622C94.9656 24.4089 95.1589 24.3822 95.3722 24.3822C95.9789 24.3822 96.4156 24.5422 96.6822 24.8622C96.9489 25.1822 97.0822 25.6656 97.0822 26.3122V29.2722H97.8622V29.6222H95.7222V29.2722H96.5022V26.3722C96.5022 25.8322 96.3922 25.4356 96.1722 25.1822C95.9522 24.9289 95.6189 24.8022 95.1722 24.8022C94.9989 24.8022 94.8322 24.8256 94.6722 24.8722C94.5122 24.9189 94.3689 24.9922 94.2422 25.0922C94.1156 25.1856 94.0122 25.3056 93.9322 25.4522C93.8589 25.5922 93.8222 25.7589 93.8222 25.9522V29.2722H94.6022V29.6222H92.4622V29.2722ZM103.426 29.3722C103.693 29.3722 103.926 29.3256 104.126 29.2322C104.326 29.1389 104.493 29.0122 104.626 28.8522C104.766 28.6856 104.87 28.4889 104.936 28.2622C105.003 28.0289 105.036 27.7722 105.036 27.4922V26.6322C105.036 26.3522 105.003 26.0989 104.936 25.8722C104.87 25.6389 104.766 25.4422 104.626 25.2822C104.493 25.1156 104.326 24.9856 104.126 24.8922C103.926 24.7989 103.693 24.7522 103.426 24.7522C103.16 24.7522 102.926 24.7989 102.726 24.8922C102.526 24.9856 102.356 25.1156 102.216 25.2822C102.083 25.4422 101.983 25.6389 101.916 25.8722C101.85 26.0989 101.816 26.3522 101.816 26.6322V27.4922C101.816 27.7722 101.85 28.0289 101.916 28.2622C101.983 28.4889 102.083 28.6856 102.216 28.8522C102.356 29.0122 102.526 29.1389 102.726 29.2322C102.926 29.3256 103.16 29.3722 103.426 29.3722ZM103.426 29.7422C103.08 29.7422 102.766 29.6822 102.486 29.5622C102.213 29.4422 101.976 29.2689 101.776 29.0422C101.583 28.8089 101.433 28.5256 101.326 28.1922C101.22 27.8589 101.166 27.4822 101.166 27.0622C101.166 26.6422 101.22 26.2689 101.326 25.9422C101.433 25.6089 101.583 25.3289 101.776 25.1022C101.976 24.8689 102.213 24.6922 102.486 24.5722C102.766 24.4456 103.08 24.3822 103.426 24.3822C103.773 24.3822 104.083 24.4456 104.356 24.5722C104.636 24.6922 104.873 24.8689 105.066 25.1022C105.266 25.3289 105.42 25.6089 105.526 25.9422C105.633 26.2689 105.686 26.6422 105.686 27.0622C105.686 27.4822 105.633 27.8589 105.526 28.1922C105.42 28.5256 105.266 28.8089 105.066 29.0422C104.873 29.2689 104.636 29.4422 104.356 29.5622C104.083 29.6822 103.773 29.7422 103.426 29.7422ZM108.974 31.2722H109.754V24.9822L108.974 24.8822V24.6222L110.334 24.4022V25.3122H110.374C110.487 25.0589 110.67 24.8422 110.924 24.6622C111.177 24.4756 111.517 24.3822 111.944 24.3822C112.597 24.3822 113.11 24.6089 113.484 25.0622C113.864 25.5156 114.054 26.1822 114.054 27.0622C114.054 27.9422 113.864 28.6089 113.484 29.0622C113.11 29.5156 112.597 29.7422 111.944 29.7422C111.524 29.7422 111.184 29.6522 110.924 29.4722C110.664 29.2856 110.48 29.0689 110.374 28.8222H110.334V31.2722H111.314V31.6222H108.974V31.2722ZM111.794 29.3222C112.314 29.3222 112.714 29.1522 112.994 28.8122C113.28 28.4656 113.424 27.9989 113.424 27.4122V26.7122C113.424 26.1256 113.28 25.6622 112.994 25.3222C112.714 24.9756 112.314 24.8022 111.794 24.8022C111.607 24.8022 111.427 24.8289 111.254 24.8822C111.08 24.9356 110.924 25.0122 110.784 25.1122C110.65 25.2122 110.54 25.3322 110.454 25.4722C110.374 25.6122 110.334 25.7722 110.334 25.9522V28.1722C110.334 28.3522 110.374 28.5122 110.454 28.6522C110.54 28.7922 110.65 28.9122 110.784 29.0122C110.924 29.1122 111.08 29.1889 111.254 29.2422C111.427 29.2956 111.607 29.3222 111.794 29.3222Z" fill="black"/>
<path d="M121.523 33.312V11.76H118.307V12.456H120.755V32.616H118.307V33.312H121.523Z" fill="black"/>
<mask id="mask0_301_25" style="mask-type:alpha" maskUnits="userSpaceOnUse" x="7" y="9" width="26" height="25">
<rect x="7" y="9" width="25.0784" height="24.4444" fill="#C4C4C4"/>
</mask>
<g mask="url(#mask0_301_25)">
<rect x="0.899841" y="27.4985" width="21.6894" height="5.94595" fill="#76323F"/>
<rect x="15.8113" y="18.2493" width="21.6894" height="6.60661" fill="#9A5C5B"/>
<rect x="25.9782" y="9" width="20.3338" height="6.60661" fill="#76323F"/>
<rect x="2.25543" y="9" width="20.3338" height="6.60661" fill="#76323F"/>
<rect x="-7.91147" y="18.2493" width="20.3338" height="6.60661" fill="#76323F"/>
<rect x="25.3004" y="27.4985" width="21.6894" height="5.94595" fill="#76323F"/>
</g>
</svg>
